<svg width="175" height="24" viewBox="0 0 175 24" fill="none" xmlns="http://www.w3.org/2000/svg">
<path d="M1.1743 15.8148L1.1743 13.312H2.94077C4.33588 13.312 5.12879 12.3471 5.12879 11.2113C5.12879 10.0755 4.34592 9.11056 2.94077 9.11056H0L0 15.8148H1.1743ZM2.78018 12.2767H1.1743L1.1743 10.1458H2.78018C3.44261 10.1458 3.92438 10.568 3.92438 11.2113C3.92438 11.8546 3.44261 12.2767 2.78018 12.2767Z" fill="#90929C"/>
<path d="M9.22779 15.9354C11.2351 15.9354 12.6503 14.4679 12.6503 12.4677C12.6503 10.4675 11.2351 9 9.22779 9C7.22043 9 5.80525 10.4675 5.80525 12.4677C5.80525 14.4679 7.22043 15.9354 9.22779 15.9354ZM9.22779 14.8901C7.87282 14.8901 7.00966 13.8447 7.00966 12.4677C7.00966 11.0806 7.87282 10.0453 9.22779 10.0453C10.5727 10.0453 11.4459 11.0806 11.4459 12.4677C11.4459 13.8447 10.5727 14.8901 9.22779 14.8901Z" fill="#90929C"/>
<path d="M19.9583 15.8148L21.8652 9.11056H20.5504L19.2557 14.2769L17.8706 9.11056H16.9372L15.5521 14.2769L14.2473 9.11056H12.9325L14.8495 15.8148H16.1041L17.3989 10.8695L18.7037 15.8148H19.9583Z" fill="#90929C"/>
<path d="M27.2381 15.8148V14.7795L23.8256 14.7795V12.92H27.1679V11.8847H23.8256V10.1458H27.2381V9.11056H22.6513V15.8148L27.2381 15.8148Z" fill="#90929C"/>
<path d="M33.623 15.8148L31.987 13.1813C32.79 13.0507 33.5728 12.4074 33.5728 11.2113C33.5728 9.97497 32.7097 9.11056 31.3848 9.11056H28.444V15.8148H29.6183V13.312H30.7826L32.268 15.8148H33.623ZM31.2242 12.2767H29.6183V10.1458H31.2242C31.8866 10.1458 32.3684 10.568 32.3684 11.2113C32.3684 11.8546 31.8866 12.2767 31.2242 12.2767Z" fill="#90929C"/>
<path d="M39.3332 15.8148V14.7795H35.9207V12.92H39.263V11.8847H35.9207V10.1458H39.3332V9.11056H34.7464V15.8148H39.3332Z" fill="#90929C"/>
<path d="M43.0282 15.8148C45.1159 15.8148 46.5311 14.4377 46.5311 12.4677C46.5311 10.4976 45.1159 9.11056 43.0282 9.11056H40.5391V15.8148H43.0282ZM43.0282 14.7795H41.7134V10.1458H43.0282C44.5237 10.1458 45.3267 11.1711 45.3267 12.4677C45.3267 13.7342 44.4836 14.7795 43.0282 14.7795Z" fill="#90929C"/>
<path d="M53.625 15.8148C54.8796 15.8148 55.5722 15.0408 55.5722 14.0055C55.5722 13.1813 54.99 12.4677 54.2774 12.3571C54.8997 12.2265 55.4417 11.6636 55.4417 10.8193C55.4417 9.87446 54.7592 9.11056 53.5347 9.11056H50.2426V15.8148H53.625ZM53.2938 11.8847H51.4169V10.1458H53.2938C53.896 10.1458 54.2373 10.5177 54.2373 11.0203C54.2373 11.5229 53.896 11.8847 53.2938 11.8847ZM53.344 14.7795H51.4169V12.92H53.344C54.0164 12.92 54.3677 13.3422 54.3677 13.8447C54.3677 14.4277 53.9863 14.7795 53.344 14.7795Z" fill="#90929C"/>
<path d="M59.5182 15.8148V13.0306L62.1077 9.11056H60.7628L58.9361 11.9852L57.0893 9.11056H55.7444L58.3439 13.0306V15.8148H59.5182Z" fill="#90929C"/>
<path d="M99.2969 14.8532L100.464 13.4356C101.272 14.1117 102.119 14.5406 103.144 14.5406C103.951 14.5406 104.438 14.2159 104.438 13.6828V13.6561C104.438 13.1497 104.13 12.888 102.63 12.4978C100.823 12.0301 99.655 11.5212 99.655 9.71346V9.68681C99.655 8.03413 100.964 6.94122 102.797 6.94122C104.106 6.94122 105.221 7.35803 106.131 8.09956L105.104 9.60926C104.309 9.04948 103.528 8.71023 102.771 8.71023C102.014 8.71023 101.618 9.0616 101.618 9.50506V9.53171C101.618 10.1303 102.002 10.3265 103.554 10.7288C105.374 11.211 106.4 11.8726 106.4 13.4623V13.4889C106.4 15.2967 105.042 16.3121 103.105 16.3121C101.744 16.3121 100.374 15.8298 99.2969 14.8532Z" fill="#90929C"/>
<path d="M108.17 14.2039V10.8985H107.348V9.20706H108.17V7.42352H110.118V9.20706H111.735V10.8985H110.118V13.8791C110.118 14.3347 110.312 14.5552 110.746 14.5552C111.104 14.5552 111.427 14.4632 111.708 14.3081V15.8953C111.298 16.1425 110.825 16.3 110.171 16.3C108.977 16.2976 108.17 15.8153 108.17 14.2039Z" fill="#90929C"/>
<path d="M113.208 6.68195H115.259V8.43883H113.208V6.68195ZM113.261 9.207H115.209V16.1812H113.261V9.207Z" fill="#90929C"/>
<path d="M117.363 14.2039V10.8985H116.541V9.20706H117.363V7.42352H119.311V9.20706H120.927V10.8985H119.311V13.8791C119.311 14.3347 119.504 14.5552 119.939 14.5552C120.297 14.5552 120.619 14.4632 120.901 14.3081V15.8953C120.49 16.1425 120.018 16.3 119.363 16.3C118.17 16.2976 117.363 15.8153 117.363 14.2039Z" fill="#90929C"/>
<path d="M121.837 12.7329V12.7062C121.837 10.7167 123.336 9.07614 125.44 9.07614C126.734 9.07614 127.544 9.51961 128.184 10.2466L126.992 11.5479C126.555 11.0802 126.121 10.7797 125.428 10.7797C124.454 10.7797 123.761 11.6521 123.761 12.6796V12.7062C123.761 13.7725 124.442 14.6327 125.504 14.6327C126.159 14.6327 126.608 14.3468 127.08 13.8912L128.222 15.0617C127.556 15.8032 126.787 16.3363 125.414 16.3363C123.351 16.3363 121.837 14.7224 121.837 12.7329Z" fill="#90929C"/>
<path d="M129.492 6.68195H131.441V10.1957C131.889 9.60927 132.467 9.07613 133.453 9.07613C134.927 9.07613 135.786 10.0648 135.786 11.6642V16.1788H133.838V12.2894C133.838 11.3516 133.401 10.8718 132.658 10.8718C131.916 10.8718 131.441 11.354 131.441 12.2894V16.1788H129.492V6.68195Z" fill="#90929C"/>
<path d="M137.482 11.6522V11.6255C137.482 9.04958 139.38 6.91467 142.021 6.91467C143.649 6.91467 144.624 7.50111 145.521 8.35895L144.829 9.11259C144.072 8.38318 143.227 7.8646 142.009 7.8646C140.022 7.8646 138.535 9.50517 138.535 11.5989V11.6255C138.535 13.7338 140.034 15.3865 142.009 15.3865C143.241 15.3865 144.048 14.9042 144.908 14.0731L145.574 14.737C144.638 15.6991 143.611 16.3364 141.983 16.3364C139.392 16.3364 137.482 14.2669 137.482 11.6522Z" fill="#90929C"/>
<path d="M147.176 9.45424H148.162V11.2111C148.649 10.0916 149.611 9.2846 150.867 9.33791V10.4187H150.791C149.341 10.4187 148.162 11.4728 148.162 13.5035V16.1837H147.176V9.45424Z" fill="#90929C"/>
<path d="M155.01 15.464C155.92 15.464 156.562 15.086 157.099 14.5141L157.715 15.0739C157.049 15.8275 156.242 16.3364 154.984 16.3364C153.164 16.3364 151.677 14.9188 151.677 12.8226C151.677 10.8719 153.023 9.30887 154.857 9.30887C156.82 9.30887 157.947 10.8961 157.947 12.8735C157.947 12.9656 157.947 13.0698 157.935 13.2249H152.677C152.818 14.6449 153.842 15.464 155.01 15.464ZM156.946 12.4204C156.832 11.1966 156.139 10.157 154.831 10.157C153.689 10.157 152.818 11.1191 152.677 12.4204H156.946Z" fill="#90929C"/>
<path d="M159.293 12.8371V12.8105C159.293 10.6126 160.869 9.31126 162.46 9.31126C163.692 9.31126 164.484 9.98735 164.998 10.7434V6.68442H165.984V16.1837H164.998V14.8315C164.461 15.6384 163.677 16.3267 162.46 16.3267C160.869 16.3242 159.293 15.0496 159.293 12.8371ZM165.036 12.8226V12.7959C165.036 11.2475 163.868 10.2055 162.639 10.2055C161.356 10.2055 160.306 11.1675 160.306 12.7959V12.8226C160.306 14.4098 161.383 15.4252 162.639 15.4252C163.871 15.4252 165.036 14.3711 165.036 12.8226Z" fill="#90929C"/>
<path d="M168.219 6.87823H169.346V7.98325H168.219V6.87823ZM168.281 9.45419H169.267V16.1812H168.281V9.45419Z" fill="#90929C"/>
<path d="M171.91 14.3977V10.3387H170.986V9.45423H171.91V7.42352H172.896V9.45423H175V10.3387H172.896V14.2693C172.896 15.0884 173.345 15.3889 174.011 15.3889C174.346 15.3889 174.627 15.3234 174.974 15.1538V16.0116C174.627 16.1934 174.255 16.2976 173.782 16.2976C172.717 16.2976 171.91 15.7645 171.91 14.3977Z" fill="#90929C"/>
<path d="M83.403 20.8272C82.8789 20.2953 82.8773 19.4279 83.403 18.896L87.1426 15.1007C87.7494 14.4849 88.1445 13.7064 88.2867 12.8473C88.328 12.599 88.3462 12.3708 88.3478 12.151C88.3478 11.4631 88.1809 10.7836 87.8651 10.1862C87.6965 9.8641 87.4766 9.55873 87.2137 9.27852C87.2137 9.27852 87.1542 9.21309 87.1426 9.19967C87.1294 9.18624 87.0633 9.12752 87.0633 9.12752C86.7872 8.86074 86.4863 8.63759 86.1705 8.46644C85.5803 8.14597 84.9124 7.97819 84.2346 7.97819C84.018 7.97819 83.7932 7.99832 83.5485 8.04027C82.702 8.18456 81.9333 8.58557 81.3265 9.19967L77.5885 12.9933C77.0645 13.5252 76.2097 13.5252 75.6857 12.9933C75.1616 12.4614 75.1616 11.5956 75.6857 11.0621L79.4236 7.26678C79.8981 6.78691 80.4354 6.38088 81.019 6.06208C81.9994 5.52685 83.1104 5.24496 84.2346 5.24496C86.0069 5.24496 87.6832 5.93289 88.9595 7.18289L89.0488 7.26845L89.1315 7.35571C90.3631 8.65101 91.041 10.3523 91.041 12.151C91.041 13.2919 90.7616 14.4211 90.2358 15.4144C89.9217 16.0067 89.5216 16.552 89.0488 17.0336L85.3108 20.8272C84.7801 21.3591 83.9271 21.3591 83.403 20.8272Z" fill="#64C298"/>
<path d="M80.6538 23.6023C80.1314 23.0721 80.1314 22.2147 80.6538 21.6845C81.1762 21.1543 82.021 21.1543 82.5434 21.6845C83.0659 22.2147 83.0659 23.0721 82.5434 23.6023C82.0227 24.1325 81.1762 24.1325 80.6538 23.6023Z" fill="#64C298"/>
<path d="M77.6363 3.17452C78.1604 3.70639 78.1621 4.57385 77.6363 5.10573L73.8983 8.89935C73.2916 9.51512 72.8965 10.2936 72.7543 11.1544C72.713 11.4027 72.6948 11.6309 72.6931 11.8507C72.6931 12.5386 72.8585 13.2181 73.1742 13.8155C73.3429 14.1359 73.5627 14.4413 73.8256 14.7232C73.8256 14.7232 73.8851 14.7886 73.8967 14.802C73.9099 14.8155 73.976 14.8742 73.976 14.8742C74.2521 15.141 74.553 15.3641 74.8688 15.5353C75.459 15.8557 76.1269 16.0235 76.8047 16.0235C77.0213 16.0235 77.2462 16.0034 77.4908 15.9614C78.3373 15.8171 79.1061 15.4161 79.7128 14.8004L83.4508 11.0067C83.9748 10.4749 84.8296 10.4749 85.3536 11.0067C85.8777 11.5386 85.8777 12.4061 85.3536 12.9379L81.6157 16.7332C81.1412 17.2148 80.6039 17.6192 80.0203 17.9379C79.0399 18.4732 77.9289 18.7551 76.8047 18.7551C75.0341 18.7551 73.3561 18.0671 72.0814 16.8171L71.9922 16.7316L71.9095 16.6443C70.6778 15.349 70 13.646 70 11.849C70 10.7081 70.2777 9.57888 70.8051 8.58559C71.1192 7.99331 71.5193 7.44801 71.9922 6.96646L75.7301 3.17284C76.2592 2.64096 77.1122 2.64096 77.6363 3.17452Z" fill="#64C298"/>
<path d="M80.3857 0.397651C80.9081 0.927853 80.9081 1.78523 80.3857 2.31544C79.8633 2.84564 79.0185 2.84564 78.4961 2.31544C77.9736 1.78523 77.9753 0.927853 78.4961 0.397651C79.0168 -0.13255 79.8633 -0.13255 80.3857 0.397651Z" fill="#64C298"/>
</svg>
